name analog
datacolumns 19
datarows 58
range 0.7495 0.778
endheader
time	ground_force_vx	ground_force_vy	ground_force_vz	ground_force_px	ground_force_py	ground_force_pz	l_ground_force_vx	l_ground_force_vy	l_ground_force_vz	l_ground_force_px	l_ground_force_py	l_ground_force_pz	ground_torque_x	ground_torque_y	ground_torque_z	l_ground_torque_x	l_ground_torque_y	l_ground_torque_z
0.7495	-0.0	-0.0	-0.0	-0.0	-0.0	-0.0	7.435948848724365	5.062299728393555	-783.9559936523438	-0.0	-0.0	-0.0	-0.0	-0.0	-0.0	235985.609375	-45990.8203125	-2834.416259765625
0.75	-0.0	-0.0	-0.0	-0.0	-0.0	-0.0	6.709316253662109	6.8689446449279785	-789.1622924804688	-0.0	-0.0	-0.0	-0.0	-0.0	-0.0	237681.03125	-46418.4453125	-3154.002685546875
0.7505000000000001	-0.0	-0.0	-0.0	-0.0	-0.0	-0.0	5.908113479614258	8.630326271057129	-790.938232421875	-0.0	-0.0	-0.0	-0.0	-0.0	-0.0	238758.0625	-46520.4453125	-3453.287841796875
0.751	-0.0	-0.0	-0.0	-0.0	-0.0	-0.0	4.516781806945801	9.755828857421877	-791.6865844726562	-0.0	-0.0	-0.0	-0.0	-0.0	-0.0	239626.0625	-46431.0703125	-3642.986572265625
0.7515000000000001	-0.0	-0.0	-0.0	-0.0	-0.0	-0.0	2.572612762451172	11.29960823059082	-793.62158203125	-0.0	-0.0	-0.0	-0.0	-0.0	-0.0	240059.109375	-46189.109375	-4216.8583984375
0.752	-0.0	-0.0	-0.0	-0.0	-0.0	-0.0	0.4159602522850036	12.440264701843262	-797.1415405273438	-0.0	-0.0	-0.0	-0.0	-0.0	-0.0	241105.734375	-46146.4140625	-4535.142578125
0.7525000000000001	-0.0	-0.0	-0.0	-0.0	-0.0	-0.0	-0.5047835111618042	13.778182983398438	-798.967041015625	-0.0	-0.0	-0.0	-0.0	-0.0	-0.0	241683.265625	-46107.4140625	-4715.80615234375
0.753	-0.0	-0.0	-0.0	-0.0	-0.0	-0.0	-1.6789894104003906	14.552730560302734	-800.7125244140625	-0.0	-0.0	-0.0	-0.0	-0.0	-0.0	242047.71875	-46028.875	-4652.42431640625
0.7535000000000001	-0.0	-0.0	-0.0	-0.0	-0.0	-0.0	-1.9038763046264648	14.66818141937256	-800.7658081054688	-0.0	-0.0	-0.0	-0.0	-0.0	-0.0	242026.140625	-45987.7109375	-4492.869140625
0.754	-0.0	-0.0	-0.0	-0.0	-0.0	-0.0	-1.9516372680664065	14.192736625671388	-799.153564453125	-0.0	-0.0	-0.0	-0.0	-0.0	-0.0	241416.640625	-45869.7265625	-4118.85693359375
0.7545000000000001	-0.0	-0.0	-0.0	-0.0	-0.0	-0.0	-2.968536138534546	13.139481544494627	-798.3480834960938	-0.0	-0.0	-0.0	-0.0	-0.0	-0.0	241006.78125	-45344.875	-4001.228759765625
0.755	-0.0	-0.0	-0.0	-0.0	-0.0	-0.0	-3.575409412384033	13.065237045288086	-797.1941528320312	-0.0	-0.0	-0.0	-0.0	-0.0	-0.0	240411.015625	-45150.359375	-3707.2294921875
0.7555000000000001	-0.0	-0.0	-0.0	-0.0	-0.0	-0.0	-4.530500411987305	12.812867164611816	-794.6199340820312	-0.0	-0.0	-0.0	-0.0	-0.0	-0.0	239981.015625	-44912.98828125	-3550.6689453125
0.756	-0.0	-0.0	-0.0	-0.0	-0.0	-0.0	-4.973935127258301	12.765535354614258	-793.5403442382812	-0.0	-0.0	-0.0	-0.0	-0.0	-0.0	238897.46875	-44266.8125	-3322.66748046875
0.7565000000000001	-0.0	-0.0	-0.0	-0.0	-0.0	-0.0	-5.494078159332275	11.964606285095217	-789.1640014648438	-0.0	-0.0	-0.0	-0.0	-0.0	-0.0	237622.96875	-44122.23828125	-3159.0869140625
0.757	-0.0	-0.0	-0.0	-0.0	-0.0	-0.0	-6.209754943847656	10.937076568603516	-787.708984375	-0.0	-0.0	-0.0	-0.0	-0.0	-0.0	236541.15625	-43683.29296875	-3027.370361328125
0.7575000000000001	-0.0	-0.0	-0.0	-0.0	-0.0	-0.0	-6.460822582244873	10.05734157562256	-786.311767578125	-0.0	-0.0	-0.0	-0.0	-0.0	-0.0	235897.8125	-43321.328125	-2835.90771484375
0.758	-0.0	-0.0	-0.0	-0.0	-0.0	-0.0	-5.447322845458984	9.288896560668944	-787.17333984375	-0.0	-0.0	-0.0	-0.0	-0.0	-0.0	235397.328125	-43385.078125	-2393.61279296875
0.7585000000000001	-0.0	-0.0	-0.0	-0.0	-0.0	-0.0	-4.346828460693359	9.668514251708984	-790.418701171875	-0.0	-0.0	-0.0	-0.0	-0.0	-0.0	236602.0	-43336.953125	-1933.9388427734373
0.759	-0.0	-0.0	-0.0	-0.0	-0.0	-0.0	-2.682177782058716	10.567617416381836	-796.2715454101562	-0.0	-0.0	-0.0	-0.0	-0.0	-0.0	237667.109375	-43616.26171875	-1519.06298828125
0.7595000000000001	-0.0	-0.0	-0.0	-0.0	-0.0	-0.0	-1.5707292556762695	11.486979484558104	-800.17333984375	-0.0	-0.0	-0.0	-0.0	-0.0	-0.0	238752.890625	-43981.5546875	-1310.39990234375
0.76	-0.0	-0.0	-0.0	-0.0	-0.0	-0.0	-1.132320761680603	12.344208717346191	-802.185791015625	-0.0	-0.0	-0.0	-0.0	-0.0	-0.0	239347.71875	-44086.76953125	-1304.570556640625
0.7605000000000001	-0.0	-0.0	-0.0	-0.0	-0.0	-0.0	-1.3355448246002195	13.399169921875	-802.3888549804688	-0.0	-0.0	-0.0	-0.0	-0.0	-0.0	239437.171875	-43759.390625	-1469.9986572265625
0.761	-0.0	-0.0	-0.0	-0.0	-0.0	-0.0	-1.690277338027954	13.49232578277588	-801.55078125	-0.0	-0.0	-0.0	-0.0	-0.0	-0.0	239167.390625	-43430.21875	-1466.94287109375
0.7615000000000001	-0.0	-0.0	-0.0	-0.0	-0.0	-0.0	-1.3727059364318848	12.646328926086426	-802.2677001953125	-0.0	-0.0	-0.0	-0.0	-0.0	-0.0	238585.875	-43371.16796875	-1465.3612060546875
0.762	-0.0	-0.0	-0.0	-0.0	-0.0	-0.0	-2.023761034011841	11.460851669311523	-800.9361572265625	-0.0	-0.0	-0.0	-0.0	-0.0	-0.0	238308.15625	-43379.86328125	-1512.889892578125
0.7625000000000001	-0.0	-0.0	-0.0	-0.0	-0.0	-0.0	-2.0912468433380127	9.698734283447266	-801.219970703125	-0.0	-0.0	-0.0	-0.0	-0.0	-0.0	237761.296875	-42973.40234375	-1562.7078857421875
0.763	-0.0	-0.0	-0.0	-0.0	-0.0	-0.0	-2.5219390392303467	8.323270797729492	-799.0252075195312	-0.0	-0.0	-0.0	-0.0	-0.0	-0.0	237093.890625	-42413.3203125	-1645.329345703125
0.7635000000000001	-0.0	-0.0	-0.0	-0.0	-0.0	-0.0	-4.042434215545654	7.393908023834228	-797.9620361328125	-0.0	-0.0	-0.0	-0.0	-0.0	-0.0	236412.25	-42292.85546875	-1885.3426513671875
0.764	-0.0	-0.0	-0.0	-0.0	-0.0	-0.0	-4.950553894042969	7.06181001663208	-799.2236328125	-0.0	-0.0	-0.0	-0.0	-0.0	-0.0	236022.734375	-41913.0546875	-2189.779541015625
0.7645000000000001	-0.0	-0.0	-0.0	-0.0	-0.0	-0.0	-6.52594518661499	6.821904182434082	-800.2704467773438	-0.0	-0.0	-0.0	-0.0	-0.0	-0.0	235873.171875	-41487.7109375	-2590.7783203125
0.765	-0.0	-0.0	-0.0	-0.0	-0.0	-0.0	-6.923092842102051	6.581783294677734	-802.099365234375	-0.0	-0.0	-0.0	-0.0	-0.0	-0.0	236468.78125	-41378.96484375	-2791.671630859375
0.7655000000000001	-0.0	-0.0	-0.0	-0.0	-0.0	-0.0	-6.823727130889893	6.362648010253906	-803.481689453125	-0.0	-0.0	-0.0	-0.0	-0.0	-0.0	237276.546875	-41331.23828125	-2784.533203125
0.766	-0.0	-0.0	-0.0	-0.0	-0.0	-0.0	-6.802618026733398	6.157905101776123	-809.1788940429688	-0.0	-0.0	-0.0	-0.0	-0.0	-0.0	237899.25	-41430.9453125	-2828.489990234375
0.7665000000000001	-0.0	-0.0	-0.0	-0.0	-0.0	-0.0	-7.054128170013428	6.094196319580078	-811.8743896484375	-0.0	-0.0	-0.0	-0.0	-0.0	-0.0	238498.75	-41469.98828125	-2874.819580078125
0.767	-0.0	-0.0	-0.0	-0.0	-0.0	-0.0	-7.185573577880859	6.8433918952941895	-814.919921875	-0.0	-0.0	-0.0	-0.0	-0.0	-0.0	239497.40625	-41492.625	-2834.7373046875
0.7675000000000001	-0.0	-0.0	-0.0	-0.0	-0.0	-0.0	-7.118291854858398	7.157037258148193	-817.3757934570312	-0.0	-0.0	-0.0	-0.0	-0.0	-0.0	240289.9375	-41456.25	-2783.497314453125
0.768	-0.0	-0.0	-0.0	-0.0	-0.0	-0.0	-6.561753749847412	7.772308349609375	-820.85546875	-0.0	-0.0	-0.0	-0.0	-0.0	-0.0	241150.703125	-41807.5234375	-2738.96240234375
0.7685	-0.0	-0.0	-0.0	-0.0	-0.0	-0.0	-7.322680950164795	7.681304454803467	-823.4688110351562	-0.0	-0.0	-0.0	-0.0	-0.0	-0.0	241915.71875	-41594.9765625	-2829.43212890625
0.769	-0.0	-0.0	-0.0	-0.0	-0.0	-0.0	-7.629127502441406	8.371695518493652	-823.8283081054688	-0.0	-0.0	-0.0	-0.0	-0.0	-0.0	241991.890625	-41733.4609375	-3109.959716796875
0.7695	-0.0	-0.0	-0.0	-0.0	-0.0	-0.0	-8.760798454284668	7.92505407333374	-823.55419921875	-0.0	-0.0	-0.0	-0.0	-0.0	-0.0	241752.390625	-41344.84765625	-3312.1650390625
0.77	-0.0	-0.0	-0.0	-0.0	-0.0	-0.0	-10.312057495117188	7.330699920654297	-823.8187255859375	-0.0	-0.0	-0.0	-0.0	-0.0	-0.0	241159.234375	-40980.84375	-3735.916015625
0.7705	-0.0	-0.0	-0.0	-0.0	-0.0	-0.0	-11.843976974487305	6.249300479888916	-822.771484375	-0.0	-0.0	-0.0	-0.0	-0.0	-0.0	241070.15625	-40875.6328125	-4040.418701171875
0.771	-0.0	-0.0	-0.0	-0.0	-0.0	-0.0	-12.930102348327637	5.652587890625	-825.3250732421875	-0.0	-0.0	-0.0	-0.0	-0.0	-0.0	241154.859375	-40526.51171875	-4301.798828125
0.7715	-0.0	-0.0	-0.0	-0.0	-0.0	-0.0	-13.527458190917969	5.364143371582031	-825.8215942382812	-0.0	-0.0	-0.0	-0.0	-0.0	-0.0	241599.5625	-40516.80859375	-4436.0859375
0.772	-0.0	-0.0	-0.0	-0.0	-0.0	-0.0	-15.059094429016112	5.032590389251709	-827.4893798828125	-0.0	-0.0	-0.0	-0.0	-0.0	-0.0	241732.34375	-40324.49609375	-4762.94775390625
0.7725	-0.0	-0.0	-0.0	-0.0	-0.0	-0.0	-17.012310028076172	4.962874889373779	-827.4893798828125	-0.0	-0.0	-0.0	-0.0	-0.0	-0.0	241954.25	-40345.8125	-5291.03759765625
0.773	-0.0	-0.0	-0.0	-0.0	-0.0	-0.0	-18.473655700683597	5.34564733505249	-827.4893798828125	-0.0	-0.0	-0.0	-0.0	-0.0	-0.0	241834.53125	-40222.5390625	-5611.47998046875
0.7735	-0.0	-0.0	-0.0	-0.0	-0.0	-0.0	-18.741138458251957	5.410684108734131	-828.7999877929688	-0.0	-0.0	-0.0	-0.0	-0.0	-0.0	241847.03125	-40339.92578125	-5633.50927734375
0.774	-0.0	-0.0	-0.0	-0.0	-0.0	-0.0	-18.36434936523437	5.941752910614014	-830.2777099609375	-0.0	-0.0	-0.0	-0.0	-0.0	-0.0	242528.609375	-40725.8671875	-5514.4345703125
0.7745	-0.0	-0.0	-0.0	-0.0	-0.0	-0.0	-17.431135177612305	5.498821258544922	-833.0799560546875	-0.0	-0.0	-0.0	-0.0	-0.0	-0.0	243084.0	-41269.57421875	-5283.87255859375
0.775	-0.0	-0.0	-0.0	-0.0	-0.0	-0.0	-16.165477752685547	5.784614086151123	-836.0489501953125	-0.0	-0.0	-0.0	-0.0	-0.0	-0.0	243796.359375	-41315.7265625	-4890.22216796875
0.7755	-0.0	-0.0	-0.0	-0.0	-0.0	-0.0	-14.725184440612791	6.381843566894531	-838.927978515625	-0.0	-0.0	-0.0	-0.0	-0.0	-0.0	244573.234375	-41961.08203125	-4473.42431640625
0.776	-0.0	-0.0	-0.0	-0.0	-0.0	-0.0	-13.860896110534668	6.535151481628418	-836.8272094726562	-0.0	-0.0	-0.0	-0.0	-0.0	-0.0	244844.203125	-42030.26171875	-4153.5830078125
0.7765	-0.0	-0.0	-0.0	-0.0	-0.0	-0.0	-13.19534969329834	7.397571086883545	-838.926513671875	-0.0	-0.0	-0.0	-0.0	-0.0	-0.0	244797.53125	-42240.5078125	-4034.44091796875
0.777	-0.0	-0.0	-0.0	-0.0	-0.0	-0.0	-12.64069366455078	7.463773250579834	-837.5293579101562	-0.0	-0.0	-0.0	-0.0	-0.0	-0.0	243951.40625	-42355.51171875	-3818.857177734375
0.7775	-0.0	-0.0	-0.0	-0.0	-0.0	-0.0	-12.486350059509276	7.286417007446289	-834.5584106445312	-0.0	-0.0	-0.0	-0.0	-0.0	-0.0	243183.125	-42304.13671875	-3766.885009765625
0.778	-0.0	-0.0	-0.0	-0.0	-0.0	-0.0	-12.907563209533691	6.248783111572266	-833.4249267578125	-0.0	-0.0	-0.0	-0.0	-0.0	-0.0	242810.78125	-42545.9140625	-3767.517578125
